<svg width="247" height="32" viewBox="0 0 247 32" fill="none" xmlns="http://www.w3.org/2000/svg">
<g id="header">
<g id="logo">
<path id="HEAdPHONEs" fill-rule="evenodd" clip-rule="evenodd" d="M216.381 16.2241V22.2361H213.555V16.2241C213.555 13.2181 215.859 10.5541 218.937 10.5541C222.015 10.5541 224.319 13.2181 224.319 16.2241V22.2361H221.493V16.2241C221.493 14.7841 220.449 13.3981 218.937 13.3981C217.425 13.3981 216.381 14.7841 216.381 16.2241ZM157.791 22.2361V19.6621H162.921V22.2361H165.765V16.2601C165.765 13.1101 163.335 10.5721 160.347 10.5721C157.359 10.5721 154.929 13.1101 154.929 16.2601V22.2361H157.791ZM135.705 17.9701V22.2361H132.843V10.8421H135.705V15.1081H140.133V10.8421H142.995V22.2361H140.133V17.9701H135.705ZM154.029 19.3741V22.2361H149.313C146.217 22.2361 143.895 19.5541 143.895 16.5481C143.895 13.5241 146.217 10.8421 149.313 10.8421H154.029V13.7041H149.313C148.359 13.7041 147.531 14.2981 147.099 15.1081H151.887V17.9701H147.099C147.531 18.7981 148.359 19.3741 149.313 19.3741H154.029ZM157.791 16.8181H162.921V16.2601C162.921 14.6941 161.769 13.4161 160.347 13.4161C158.943 13.4161 157.791 14.6941 157.791 16.2601V16.8181ZM172.083 22.2361C175.071 22.2361 177.501 19.6801 177.501 16.5481C177.501 13.3981 175.071 10.8421 172.083 10.8421H166.665V22.2361H172.083ZM169.527 19.3741H172.083C173.505 19.3741 174.657 18.1141 174.657 16.5481C174.657 14.9821 173.505 13.7041 172.083 13.7041H169.527V19.3741ZM181.227 22.2361V19.8421H184.719C187.167 19.8421 188.985 17.7721 188.985 15.3961C188.985 13.0201 187.167 10.9321 184.719 10.9321H178.401V22.2361H181.227ZM181.227 17.0161H184.719C185.583 17.0161 186.159 16.1881 186.159 15.3961C186.159 14.6041 185.583 13.7581 184.719 13.7581H181.227V17.0161ZM192.747 22.2361V17.9701H197.175V22.2361H200.037V10.8421H197.175V15.1081H192.747V10.8421H189.885V22.2361H192.747ZM212.655 16.6021C212.655 19.8421 210.099 22.6141 206.805 22.6141C203.511 22.6141 200.937 19.8421 200.937 16.6021C200.937 13.3441 203.511 10.5901 206.805 10.5901C210.099 10.5901 212.655 13.3441 212.655 16.6021ZM206.805 19.7701C205.059 19.7701 203.763 18.2761 203.763 16.6021C203.763 14.9101 205.077 13.4161 206.805 13.4161C208.533 13.4161 209.829 14.9101 209.829 16.6021C209.829 18.2761 208.533 19.7701 206.805 19.7701ZM235.353 22.2361V19.3741H230.637C229.683 19.3741 228.855 18.7981 228.423 17.9701H233.211V15.1081H228.423C228.855 14.2981 229.683 13.7041 230.637 13.7041H235.353V10.8421H230.637C227.541 10.8421 225.219 13.5241 225.219 16.5481C225.219 19.5541 227.541 22.2361 230.637 22.2361H235.353ZM241.923 19.3381C241.347 20.8681 239.745 22.2361 238.053 22.2361H236.253V19.4101H238.053C238.521 19.4101 239.115 18.7441 239.259 18.3481L240.951 13.8301C241.545 12.2281 243.255 10.9321 244.983 10.9321H246.963V13.7581H244.983C244.443 13.7581 243.777 14.3341 243.597 14.8201L241.923 19.3381Z" fill="white"/>
<path id="Polygon" fill-rule="evenodd" clip-rule="evenodd" d="M102.392 0L118.785 11.9098L112.524 31.1803H92.2614L86 11.9098L102.392 0ZM116.433 12.6731L102.392 2.47207L88.3505 12.6731L93.7135 29.1801H111.07L116.433 12.6731Z" fill="white"/>
<path id="Polygon_2" fill-rule="evenodd" clip-rule="evenodd" d="M102.392 6L113.079 13.7639L108.997 26.3262H95.788L91.7063 13.7639L102.392 6ZM110.726 14.5271L102.392 8.47207L94.0574 14.5271L97.2404 24.3261H107.543L110.726 14.5271Z" fill="#FF6565"/>
<path id="Polygon_3" fill-rule="evenodd" clip-rule="evenodd" d="M102.392 13.2361L106.197 16L104.744 20.4722H100.041L98.5882 16L102.392 13.2361Z" fill="white"/>
</g>
<path id="menu" fill-rule="evenodd" clip-rule="evenodd" d="M0 10C0 9.44772 0.447715 9 1 9H19C19.5523 9 20 9.44772 20 10C20 10.5523 19.5523 11 19 11H1C0.447715 11 0 10.5523 0 10ZM0 16C0 15.4477 0.447715 15 1 15H12C12.5523 15 13 15.4477 13 16C13 16.5523 12.5523 17 12 17H1C0.447715 17 0 16.5523 0 16ZM1 21C0.447715 21 0 21.4477 0 22C0 22.5523 0.447716 23 1 23H17C17.5523 23 18 22.5523 18 22C18 21.4477 17.5523 21 17 21H1Z" fill="white"/>
</g>
</svg>
