<svg width="62" height="62" viewBox="0 0 62 62" fill="none" xmlns="http://www.w3.org/2000/svg">
<path id="hearing" fill-rule="evenodd" clip-rule="evenodd" d="M39.8039 0.000459243C45.5601 0.0374905 50.9648 2.21483 55.0223 6.13171C59.0948 10.0636 61.3706 15.3201 61.4296 20.9334C61.5065 28.2098 57.801 34.9256 51.5179 38.8969C48.9787 40.5019 47.6779 43.4217 48.2821 46.1625C48.5006 47.1548 48.5953 48.1772 48.5634 49.2009C48.4649 52.3481 47.1618 55.3331 44.894 57.6061C42.6389 59.8669 39.6295 61.2197 36.4209 61.4151C36.1495 61.432 35.8781 61.44 35.6076 61.44C32.1614 61.44 28.8431 60.1069 26.3981 57.7158C23.744 55.1198 22.6443 51.292 23.2176 46.6453C24.2803 38.0358 23.3043 31.7245 19.8496 24.8611C18.2123 21.6075 17.834 18.2691 18.7556 15.2067C20.0592 10.8764 22.829 6.98765 26.5551 4.25671C30.3965 1.4414 34.9729 -0.0295408 39.8039 0.000459243ZM45.4218 40.6411C46.2937 38.6836 47.7365 37.028 49.5942 35.8537C54.8146 32.5542 57.8934 26.9906 57.8301 20.9714C57.7813 16.3294 55.896 11.9789 52.522 8.72155C49.1329 5.45015 44.6081 3.6314 39.7809 3.60046C35.7346 3.5803 31.8965 4.80562 28.6832 7.16062C25.5839 9.43171 23.2823 12.6581 22.2032 16.2445C21.3806 18.9778 22.2178 21.5587 23.0653 23.2425C27.7842 32.617 27.5967 40.5567 26.7909 47.0864C26.354 50.6259 27.0689 53.3362 28.9153 55.1419C30.8264 57.0108 33.4809 57.9872 36.202 57.8217C38.5307 57.6801 40.7128 56.7005 42.3454 55.0636C43.9649 53.4403 44.8954 51.3183 44.9648 49.0884C44.9878 48.3628 44.9207 47.6386 44.7665 46.9373C44.301 44.8251 44.5279 42.6483 45.4218 40.6411ZM39.6567 8.52468C32.5017 8.52468 26.6803 14.1905 26.6803 21.1547V21.1758C26.6803 21.743 26.9479 22.2773 27.4021 22.6172C27.8564 22.957 28.4442 23.0625 28.9884 22.9026C30.036 22.5947 31.2346 22.7034 32.1951 23.1937C33.6257 23.925 34.5201 25.4512 34.4203 26.9916C34.3209 28.5155 33.2535 29.9189 31.7639 30.4833C30.8343 30.8358 30.3665 31.875 30.7185 32.8045C30.9914 33.5241 31.6757 33.967 32.4023 33.967C32.6142 33.967 32.8298 33.9291 33.0398 33.8498C35.8251 32.7942 37.8234 30.1322 38.0123 27.225C38.2045 24.2714 36.5245 21.3633 33.8324 19.988C32.8078 19.4644 31.6682 19.177 30.517 19.1339C31.4723 15.1247 35.2078 12.1247 39.6567 12.1247C44.827 12.1247 49.0331 16.1756 49.0331 21.1547C49.0331 22.1489 49.8393 22.9547 50.8331 22.9547C51.8273 22.9547 52.6335 22.1489 52.6335 21.1547C52.6335 14.1905 46.8121 8.52468 39.6567 8.52468ZM11.1299 24.9787C11.8214 24.2648 12.9614 24.247 13.6748 24.9384C17.1562 28.3116 19.0734 32.8073 19.0734 37.5975C19.0734 42.3876 17.1562 46.8834 13.6753 50.2566C13.3256 50.5955 12.8737 50.7642 12.4228 50.7642C11.9526 50.7642 11.4829 50.5809 11.1299 50.2167C10.4381 49.5028 10.4559 48.3633 11.1698 47.6714C13.9453 44.9822 15.4734 41.4047 15.4734 37.5975C15.4734 33.7908 13.9453 30.2133 11.1698 27.5241C10.4559 26.8322 10.4381 25.6926 11.1299 24.9787ZM0.531039 33.7992C-0.173961 34.4995 -0.177711 35.6395 0.523071 36.3445C1.09401 36.9192 1.09401 37.8544 0.523071 38.4291C-0.177711 39.1341 -0.173961 40.2736 0.531039 40.9744C0.882133 41.3236 1.34104 41.4975 1.79995 41.4975C2.2626 41.4975 2.72526 41.3203 3.07682 40.9664C5.03807 38.9925 5.03807 35.7811 3.07682 33.8072C2.37604 33.1022 1.23651 33.0984 0.531039 33.7992ZM5.86916 30.0764C6.56057 29.3625 7.7001 29.3442 8.41448 30.0361C10.4953 32.0526 11.6414 34.7381 11.6414 37.5975C11.6414 40.4573 10.4953 43.1428 8.41448 45.1594C8.06479 45.4978 7.61291 45.6665 7.16198 45.6665C6.69135 45.6665 6.22213 45.4833 5.86916 45.1191C5.17729 44.4051 5.1951 43.2656 5.90901 42.5737C7.28432 41.2416 8.04135 39.4744 8.04135 37.5975C8.04135 35.7211 7.28432 33.9539 5.90901 32.6217C5.1951 31.9298 5.17729 30.7903 5.86916 30.0764Z" fill="#FF6565"/>
</svg>
