<svg width="68" height="77" viewBox="0 0 68 77" fill="none" xmlns="http://www.w3.org/2000/svg">
<path id="video" fill-rule="evenodd" clip-rule="evenodd" d="M62.4417 5.77253C61.3337 2.36078 58.1007 0 54.4881 0C53.7082 0 52.9312 0.110742 52.1777 0.328711L6.02634 13.698L5.73756 13.7873C3.73238 14.4463 2.07379 15.8243 1.04411 17.693C-0.0340105 19.6506 -0.287136 21.9047 0.331028 24.0387L2.84411 32.7141V68.4521L2.84795 68.707C2.9831 73.1927 6.67407 76.8 11.1914 76.8H29.216L29.3605 76.7931C30.1212 76.7205 30.716 76.0798 30.716 75.3C30.716 74.4715 30.0445 73.8 29.216 73.8H11.192L10.9718 73.7955C8.1245 73.6797 5.84411 71.3274 5.84411 68.4521V48.0393H64.5884V68.4521L64.584 68.6723C64.4682 71.5196 62.1159 73.8 59.2406 73.8H41.216L41.0716 73.8069C40.3113 73.8795 39.716 74.5202 39.716 75.3C39.716 76.1285 40.3881 76.8 41.216 76.8H59.2406L59.4954 76.7962C63.9811 76.661 67.5884 72.97 67.5884 68.4521V32.5014L67.5816 32.3569C67.5089 31.5962 66.8682 31.0014 66.0884 31.0014H14.9127L64.0676 16.7619L64.2079 16.7136C64.5281 16.5852 64.7959 16.3493 64.964 16.0447C65.1562 15.6961 65.2019 15.2859 65.0912 14.9039L62.5189 6.02402L62.4417 5.77253ZM36.716 75.3C36.716 74.4738 36.0427 73.8 35.216 73.8C34.3898 73.8 33.716 74.4738 33.716 75.3C33.716 76.1262 34.3898 76.8 35.216 76.8C36.0427 76.8 36.716 76.1262 36.716 75.3ZM30.1599 51.8596C30.5776 51.6186 31.0826 51.5945 31.5177 51.7873L31.6599 51.8596L44.8383 59.468C45.3023 59.7357 45.5883 60.2309 45.5883 60.767C45.5883 61.2544 45.3519 61.7079 44.9603 61.9875L44.8383 62.066L31.6599 69.6738C31.4279 69.808 31.1689 69.8754 30.9099 69.8754C30.651 69.8754 30.392 69.808 30.1599 69.6738C29.7381 69.4304 29.4634 68.9991 29.4169 68.5203L29.4099 68.3754V53.1586C29.4099 52.6225 29.6959 52.1273 30.1599 51.8596ZM32.4099 65.7773V55.7566L41.0883 60.767L32.4099 65.7773ZM54.3011 34.0014H46.0119L39.6386 45.0393H47.9285L54.3011 34.0014ZM34.258 34.0014H42.5472L36.1746 45.0393H27.8847L34.258 34.0014ZM30.7939 34.0014H22.5041L16.1314 45.0393H24.4207L30.7939 34.0014ZM5.84411 34.0014H19.04L12.6674 45.0393H5.84411V34.0014ZM64.5884 34.0014H57.7652L51.3926 45.0393H64.5884V34.0014ZM6.8613 16.5797L7.74255 16.3242L7.8344 16.4439L7.93943 16.5557L18.6117 26.8061L5.36775 30.6428L3.21267 23.2043L3.14505 22.9476C2.83966 21.66 3.02385 20.318 3.67204 19.1402C4.36345 17.8846 5.49607 16.9752 6.8613 16.5797ZM19.0324 13.0541L11.0361 15.3703L21.7084 25.6207L21.8136 25.7325L21.9052 25.8521L29.9015 23.5359L19.2293 13.2855L19.1238 13.1736L19.0324 13.0541ZM22.3254 12.1002L30.3217 9.78398L30.4135 9.90322L30.5185 10.0154L41.1908 20.2652L33.1945 22.582L33.1031 22.4624L32.9976 22.3506L22.3254 12.1002ZM41.6115 6.51328L33.6152 8.82949L44.2875 19.0799L44.3929 19.1917L44.4843 19.3113L52.4806 16.9951L41.8084 6.74473L41.7029 6.63274L41.6115 6.51328ZM53.3033 3.13492C53.6929 3.04537 54.0901 3 54.4881 3C56.8617 3 58.9787 4.58672 59.6373 6.85898L61.7924 14.2975L55.7742 16.0406L55.6823 15.9212L55.5767 15.8092L44.9051 5.55937L53.0127 3.21035L53.3033 3.13492Z" fill="#FF6565"/>
</svg>
